<?xml version="1.0" encoding="UTF-8"?>
<svg id="_Слой_2" data-name="Слой 2" xmlns="http://www.w3.org/2000/svg" xmlns:xlink="http://www.w3.org/1999/xlink" viewBox="0 0 357.55 350">
  <defs>
    <style>
      .cls-1 {
        fill: url(#_Безымянный_градиент_25-2);
      }

      .cls-2 {
        fill: url(#_Безымянный_градиент_25-3);
      }

      .cls-3 {
        fill: url(#_Безымянный_градиент_25);
      }
    </style>
    <linearGradient id="_Безымянный_градиент_25" data-name="Безымянный градиент 25" x1="0" y1="175" x2="284.96" y2="175" gradientUnits="userSpaceOnUse">
      <stop offset="0" stop-color="#4a6cf7"/>
      <stop offset=".98" stop-color="#c84af7"/>
    </linearGradient>
    <linearGradient id="_Безымянный_градиент_25-2" data-name="Безымянный градиент 25" x1="143.9" y1="94.21" x2="381.9" y2="94.21" gradientTransform="translate(-11.01 29.39) rotate(2.07) scale(.97) skewX(4.13)" xlink:href="#_Безымянный_градиент_25"/>
    <linearGradient id="_Безымянный_градиент_25-3" data-name="Безымянный градиент 25" x1="136.11" y1="180.37" x2="374.11" y2="180.37" gradientTransform="translate(-6.5 411.47) rotate(-2.07) scale(.97 -.96) skewX(4.13)" xlink:href="#_Безымянный_градиент_25"/>
  </defs>
  <g id="_Слой_1-2" data-name="Слой 1">
    <path class="cls-3" d="m249.31,282.31l31.83,31.83c-29.44,22.5-66.23,35.86-106.14,35.86C78.35,350,0,271.65,0,175S78.35,0,175,0c41.66,0,79.92,14.56,109.96,38.87l-32.79,32.8c-20.92-14.91-46.52-23.67-74.17-23.67-70.69,0-128,57.31-128,128s57.31,128,128,128c26.4,0,50.93-7.99,71.31-21.69Z"/>
    <path class="cls-1" d="m356.25,45.69l-194.06,194.06c-1.82,1.82-4.88,1.71-6.83-.25l-19.36-19.36c-1.95-1.95-2.07-5.01-.25-6.83L329.81,19.24c1.82-1.82,4.88-1.71,6.83.25l19.36,19.36c1.95,1.95,2.07,5.01.25,6.83Z"/>
    <path class="cls-2" d="m356.25,312.3L162.19,118.24c-1.82-1.82-4.88-1.71-6.83.25l-19.36,19.36c-1.95,1.95-2.07,5.01-.25,6.83l194.06,194.06c1.82,1.82,4.88,1.71,6.83-.25l19.36-19.36c1.95-1.95,2.07-5.01.25-6.83Z"/>
  </g>
</svg>